<?xml version="1.0" encoding="utf-8"?>
<!-- Generator: Adobe Illustrator 16.0.4, SVG Export Plug-In . SVG Version: 6.00 Build 0)  -->
<!DOCTYPE svg PUBLIC "-//W3C//DTD SVG 1.1//EN" "http://www.w3.org/Graphics/SVG/1.1/DTD/svg11.dtd">
<svg version="1.1" id="Layer_1" xmlns="http://www.w3.org/2000/svg" xmlns:xlink="http://www.w3.org/1999/xlink" x="0px" y="0px"
	 width="91.708px" height="129.625px" viewBox="0 0 91.708 129.625" enable-background="new 0 0 91.708 129.625"
	 xml:space="preserve">
<g>
	<path fill="#6D6E70" d="M58.216,79.959h1.387v12.604h-1.135L50.33,82.229v10.335h-1.386V79.959h1.332l7.94,10.101V79.959z"/>
</g>
<g>
	<path fill="#6D6E70" d="M37.458,89.106h-0.072l-4.591-6.734v10.191h-1.386V79.959h1.44l4.591,6.878l4.591-6.878h1.44v12.604H42.05
		V82.354L37.458,89.106z"/>
</g>
<g>
	<path fill="#1B854A" d="M54.255,71.752c-3.835,0-6.41-3.007-6.41-6.5c0-3.493,2.611-6.536,6.446-6.536c3.835,0,6.41,3.007,6.41,6.5
		S58.09,71.752,54.255,71.752z M54.255,60.031c-2.881,0-4.934,2.305-4.934,5.186s2.089,5.222,4.97,5.222s4.934-2.305,4.934-5.186
		S57.136,60.031,54.255,60.031z"/>
</g>
<g>
	<path fill="#E9A73B" d="M32.65,58.933h1.422v11.289h7.094v1.314H32.65V58.933z"/>
</g>
<g>
	<path fill="#E42726" d="M59.134,41.199h-7.688v4.304h6.878v1.296h-6.878v4.411h7.778v1.296h-9.201V39.903h9.11V41.199z"/>
</g>
<g>
	<path fill="#5AADCD" d="M40.959,39.903h1.53L37.07,52.597H35.81L30.39,39.903h1.584l4.483,10.857L40.959,39.903z"/>
</g>
<g>
	<path fill="#5AADCD" d="M45.849,8.536c-21.008,0-38.1,15.746-38.1,35.099v42.341c0,19.354,17.092,35.101,38.1,35.101
		c21.009,0,38.101-15.746,38.101-35.101V43.635C83.95,24.282,66.858,8.536,45.849,8.536z M75.853,85.926
		c0,15.351-13.46,27.839-30.003,27.839s-30.001-12.488-30.001-27.839V43.683c0-15.349,13.458-27.835,30.001-27.835
		s30.003,12.487,30.003,27.835V85.926z"/>
	<path fill="#5AADCD" d="M45.849,0C20.567,0,0,19.596,0,43.683v42.243c0,24.089,20.567,43.688,45.849,43.688
		S91.7,110.016,91.7,85.926V43.683C91.7,19.596,71.131,0,45.849,0z M85.436,85.977c0,20.174-17.758,36.586-39.587,36.586
		c-21.828,0-39.586-16.413-39.586-36.586V43.635c0-20.173,17.758-36.584,39.586-36.584c21.829,0,39.587,16.411,39.587,36.584V85.977
		z"/>
</g>
</svg>
